<?xml version="1.0" encoding="UTF-8" standalone="no"?>
<!-- Created with Inkscape (http://www.inkscape.org/) -->

<svg
   width="11.678836mm"
   height="6.3561831mm"
   viewBox="0 0 11.678836 6.3561831"
   version="1.1"
   id="svg924"
   xmlns="http://www.w3.org/2000/svg"
   xmlns:svg="http://www.w3.org/2000/svg">
  <defs
     id="defs921" />
  <g
     id="layer1"
     transform="translate(-75.896251,-83.742635)">
    <g
       aria-label="SM"
       id="text1405"
       style="font-size:10.5833px;line-height:1.25;letter-spacing:0px;word-spacing:0px;stroke-width:0.264583">
      <path
         d="m 79.668617,84.316241 v -0.144694 q 0,-0.155028 0.05684,-0.222207 0.06201,-0.06718 0.160197,-0.06718 0.09818,0 0.155029,0.06718 0.06201,0.06718 0.06201,0.222207 v 1.105873 q 0,0.155028 -0.06201,0.222208 -0.05684,0.06718 -0.155029,0.06718 -0.09302,0 -0.155029,-0.06201 -0.05684,-0.06201 -0.06201,-0.201537 -0.02584,-0.434081 -0.449583,-0.780312 -0.418578,-0.346231 -1.100705,-0.346231 -0.7183,0 -1.142045,0.372069 -0.423745,0.366902 -0.423745,0.868162 0,0.258381 0.118855,0.470254 0.118855,0.211872 0.315225,0.346231 0.19637,0.12919 0.444416,0.211872 0.248046,0.07752 0.775144,0.165364 0.883664,0.144694 1.21956,0.294555 0.449584,0.201537 0.676959,0.558104 0.232543,0.356566 0.232543,0.842323 0,0.744138 -0.594277,1.271236 -0.594277,0.52193 -1.601964,0.52193 -1.13171,0 -1.808669,-0.707964 V 89.6389 q 0,0.155028 -0.06201,0.222208 -0.05684,0.06718 -0.155029,0.06718 -0.09302,0 -0.155029,-0.06718 -0.06201,-0.06718 -0.06201,-0.222208 v -1.19889 q 0,-0.160196 0.05684,-0.227375 0.06201,-0.06718 0.160196,-0.06718 0.09302,0 0.149861,0.06201 0.06201,0.06201 0.06718,0.201537 0.02584,0.475422 0.506427,0.868162 0.485757,0.387572 1.302242,0.387572 0.816485,0 1.286739,-0.408243 0.475422,-0.408242 0.475422,-0.966346 0,-0.341063 -0.180867,-0.604612 -0.180867,-0.268717 -0.537433,-0.423746 -0.248047,-0.10852 -1.033526,-0.242878 -1.080034,-0.180867 -1.555455,-0.552936 -0.475422,-0.372069 -0.475422,-1.059364 0,-0.682126 0.542601,-1.173051 0.547768,-0.490925 1.441768,-0.490925 0.909502,0 1.56579,0.573607 z"
         style="font-family:monospace;-inkscape-font-specification:'monospace, Normal'"
         id="path2171" />
      <path
         d="M 84.753562,88.114447 H 84.25747 l -1.669144,-3.798206 h -0.08268 v 5.177962 h 0.800983 q 0.155028,0 0.222208,0.06201 0.06718,0.05684 0.06718,0.155028 0,0.09302 -0.06718,0.155029 -0.06718,0.06201 -0.222208,0.06201 h -1.601965 q -0.155029,0 -0.222208,-0.06201 -0.06718,-0.06201 -0.06718,-0.155029 0,-0.09819 0.06718,-0.155028 0.06718,-0.06201 0.222208,-0.06201 h 0.366902 V 84.316241 H 81.79768 q -0.155029,0 -0.222208,-0.05684 -0.06718,-0.06201 -0.06718,-0.160196 0,-0.09818 0.06718,-0.155029 0.06718,-0.06201 0.222208,-0.06201 h 1.064531 l 1.643305,3.741362 1.617467,-3.741362 h 1.064531 q 0.160197,0 0.227376,0.06201 0.06718,0.05684 0.06718,0.155029 0,0.09819 -0.06718,0.160196 -0.06718,0.05684 -0.227376,0.05684 h -0.268716 v 5.177962 h 0.361734 q 0.160196,0 0.227375,0.06201 0.06718,0.05684 0.06718,0.155028 0,0.09302 -0.06718,0.155029 -0.06718,0.06201 -0.227375,0.06201 h -1.596797 q -0.155029,0 -0.227376,-0.06201 -0.06718,-0.06201 -0.06718,-0.155029 0,-0.09819 0.06718,-0.155028 0.06718,-0.06201 0.227376,-0.06201 h 0.800982 V 84.316241 H 86.3917 Z"
         style="font-family:monospace;-inkscape-font-specification:'monospace, Normal'"
         id="path2173" />
    </g>
  </g>
</svg>
